<?xml version="1.0" encoding="utf-8"?>
<!-- Generator: Adobe Illustrator 22.1.0, SVG Export Plug-In . SVG Version: 6.00 Build 0)  -->
<svg version="1.1" id="Layer_1" xmlns="http://www.w3.org/2000/svg" xmlns:xlink="http://www.w3.org/1999/xlink" x="0px" y="0px"
	 viewBox="0 0 100 100" style="enable-background:new 0 0 100 100;" xml:space="preserve">
<style type="text/css">
	.st0{fill:#E6E6E6;}
	.st1{fill:#666666;}
</style>
<path class="st0" d="M79.8,100H20.2C9,100,0,91,0,79.8V20.2C0,9,9,0,20.2,0h59.7C91,0,100,9,100,20.2v59.7C100,91,91,100,79.8,100z"
	/>
<path class="st1" d="M82.7,55.9H17.3c-1.1,0-2-0.9-2-2v-7.7c0-1.1,0.9-2,2-2h65.3c1.1,0,2,0.9,2,2v7.7C84.7,55,83.8,55.9,82.7,55.9z
	"/>
<path class="st1" d="M82.7,80.9H17.3c-1.1,0-2-0.9-2-2v-7.7c0-1.1,0.9-2,2-2h65.3c1.1,0,2,0.9,2,2v7.7C84.7,80,83.8,80.9,82.7,80.9z
	"/>
<path class="st1" d="M82.7,30.9H17.3c-1.1,0-2-0.9-2-2v-7.7c0-1.1,0.9-2,2-2h65.3c1.1,0,2,0.9,2,2v7.7C84.7,30,83.8,30.9,82.7,30.9z
	"/>
</svg>
